<svg id="Layer_1" data-name="Layer 1" xmlns="http://www.w3.org/2000/svg" viewBox="0 0 1800 572.92"><defs><style>.cls-1{fill:#212322;}.cls-2{fill:#832b91;}.cls-3{fill:#212422;}</style></defs><path class="cls-1" d="M200,478.26c0,29.53,17.36,63.13,53.13,63.13,37.35,0,48.39-37.67,48.39-63.63,0-40.75-22.62-64.18-61.56-64.18-13.14,0-25.77,2.55-40,5.61ZM100,353.59c51.55-5.24,90.48-13.67,145.72-13.67,25.25,0,155.7,0,155.7,144.66,0,60.5-30.51,130.45-106.26,130.45-34.2,0-66.79-11-95.2-32.61V728.65H100Z" transform="translate(-100 -213.54)"/><path class="cls-1" d="M644.21,608.72c-31.55-87.31-65.74-175.17-101-262.48H646.32l53.13,168.85h1L752,346.24H856.72c-36.29,87.31-70.47,175.17-103.09,262.48Z" transform="translate(-100 -213.54)"/><path class="cls-1" d="M938.51,477.22c0,39.46,18.91,64.17,55.22,64.17,35.77,0,54.71-24.71,54.71-64.17,0-37.34-18.94-63.64-54.71-63.64-36.31,0-55.22,26.3-55.22,63.64m209.87,0c0,97.32-76.27,137.81-154.65,137.81S838.55,574.54,838.55,477.22s76.8-137.3,155.18-137.3,154.65,40,154.65,137.3" transform="translate(-100 -213.54)"/><path class="cls-2" d="M1546.68,445.14c0-31.05-14.71-46.3-39-46.3-27.38,0-41.58,23.16-44.1,46.3Zm70,159.91c-28.94,6.31-59.45,10-100.48,10-110.47,0-152.56-57.85-152.56-137.81,0-78.91,46.31-137.3,143.63-137.3,86.79,0,139.4,44.72,139.4,120.46V493H1463.56c0,40.53,37.34,55.77,72,55.77,31,0,62.08-8.94,91-17.35Z" transform="translate(-100 -213.54)"/><rect class="cls-2" x="1567.55" y="44.33" width="99.94" height="350.86"/><path class="cls-2" d="M1351.15,535.65a96.45,96.45,0,0,1-26.85,4c-23.14,0-29.45-13.14-29.45-35.77V415h59.44v-68.9h-59.44V277.66l-99.95,21v47.34H1156V415h38.92V543.3c0,57.87,37.35,71.54,87.84,71.54a271.51,271.51,0,0,0,57.51-6Z" transform="translate(-100 -213.54)"/><path class="cls-2" d="M1900,552.94a55.79,55.79,0,1,1-55.79-55.79A55.79,55.79,0,0,1,1900,552.94" transform="translate(-100 -213.54)"/><rect class="cls-1" x="322.35" y="132.69" width="99.93" height="262.5"/><path class="cls-1" d="M528.11,269.33a55.79,55.79,0,1,1-55.79-55.79,55.79,55.79,0,0,1,55.79,55.79" transform="translate(-100 -213.54)"/><path class="cls-1" d="M422.35,728.52c0-19.32,13.63-33.47,32.94-33.47,12.57,0,20,5.29,24.48,11.37l-9.13,8.34c-3.57-5-8.47-7.41-14.68-7.41-11.51,0-19.32,8.73-19.32,21.17s7.81,21.29,19.32,21.29a17.16,17.16,0,0,0,14.68-7.67l9.13,8.6c-4.5,6-11.91,11.38-24.48,11.38C436,762.12,422.35,747.83,422.35,728.52Z" transform="translate(-100 -213.54)"/><path class="cls-1" d="M488.93,728.52c0-18.39,12.44-33.47,32.81-33.47s32.81,15.08,32.81,33.47-12.44,33.6-32.81,33.6S488.93,746.77,488.93,728.52Zm51.2,0c0-11.25-6.48-21.17-18.39-21.17s-18.39,9.92-18.39,21.17,6.62,21.29,18.39,21.29S540.13,739.89,540.13,728.52Z" transform="translate(-100 -213.54)"/><path class="cls-1" d="M611,760.53V720.58c0-10.05-5.16-13.23-13-13.23-7,0-13.09,4.23-16.4,8.47v44.71H567.78v-63.9h13.89v8.6a30.49,30.49,0,0,1,22.62-10.18c13.76,0,20.64,7.4,20.64,20.5v45Z" transform="translate(-100 -213.54)"/><path class="cls-1" d="M681.41,760.53V720.58c0-10.05-5.16-13.23-13-13.23-7,0-13.1,4.23-16.4,8.47v44.71H638.16v-63.9h13.89v8.6a30.47,30.47,0,0,1,22.62-10.18c13.76,0,20.63,7.4,20.63,20.5v45Z" transform="translate(-100 -213.54)"/><path class="cls-1" d="M708.53,728.52c0-18.52,13.5-33.47,32.41-33.47,19.19,0,31.36,14.55,31.36,34.66v3.44H723.08c1.06,9.52,8.21,17.59,20.24,17.59,6.36,0,13.63-2.51,18.26-7.14l6.35,9.13c-6.48,6.08-15.87,9.39-25.93,9.39C722.69,762.12,708.53,748.76,708.53,728.52Zm32.28-22.1c-11.77,0-17.33,9.13-17.86,16.8h36C758.54,715.68,753.38,706.42,740.81,706.42Z" transform="translate(-100 -213.54)"/><path class="cls-1" d="M780.7,728.52c0-19.32,13.63-33.47,32.94-33.47,12.57,0,20,5.29,24.48,11.37L829,714.76c-3.57-5-8.47-7.41-14.69-7.41-11.51,0-19.31,8.73-19.31,21.17s7.8,21.29,19.31,21.29A17.17,17.17,0,0,0,829,742.14l9.13,8.6c-4.5,6-11.91,11.38-24.48,11.38C794.33,762.12,780.7,747.83,780.7,728.52Z" transform="translate(-100 -213.54)"/><path class="cls-1" d="M859.52,745.58V708.67H848.93v-12h10.59V679.17h13.89v17.46h13v12h-13v33.47c0,4.37,2.11,7.67,6.08,7.67a8.65,8.65,0,0,0,6.09-2.38l3.3,10.59c-2.51,2.25-6.61,4.1-13,4.1C865.07,762.12,859.52,756.3,859.52,745.58Z" transform="translate(-100 -213.54)"/><path class="cls-1" d="M895.07,728.52c0-18.52,13.5-33.47,32.41-33.47,19.19,0,31.36,14.55,31.36,34.66v3.44H909.62c1.06,9.52,8.21,17.59,20.24,17.59,6.36,0,13.63-2.51,18.26-7.14l6.35,9.13c-6.48,6.08-15.87,9.39-25.93,9.39C909.23,762.12,895.07,748.76,895.07,728.52Zm32.28-22.1c-11.77,0-17.33,9.13-17.86,16.8h36C945.08,715.68,939.92,706.42,927.35,706.42Z" transform="translate(-100 -213.54)"/><path class="cls-1" d="M1016.06,760.53V751.8a25.7,25.7,0,0,1-20.51,10.32c-16.27,0-28.31-12.44-28.31-33.6,0-20.64,11.91-33.47,28.31-33.47a24.92,24.92,0,0,1,20.51,10.45V672.29H1030v88.24Zm0-19.31V716c-3-4.76-9.93-8.6-16.41-8.6-11.11,0-18.12,8.86-18.12,21.17s7,21.29,18.12,21.29C1006.13,749.81,1013,746,1016.06,741.22Z" transform="translate(-100 -213.54)"/><path class="cls-1" d="M1081.65,728.52c0-18.52,13.49-33.47,32.41-33.47,19.18,0,31.35,14.55,31.35,34.66v3.44H1096.2c1.06,9.52,8.2,17.59,20.24,17.59,6.35,0,13.62-2.51,18.25-7.14l6.35,9.13c-6.48,6.08-15.87,9.39-25.93,9.39C1095.8,762.12,1081.65,748.76,1081.65,728.52Zm32.27-22.1c-11.77,0-17.33,9.13-17.86,16.8h36C1131.65,715.68,1126.49,706.42,1113.92,706.42Z" transform="translate(-100 -213.54)"/><path class="cls-1" d="M1174.31,760.53l-26.06-63.9h15l18.65,47.89,18.65-47.89h14.82l-26.06,63.9Z" transform="translate(-100 -213.54)"/><path class="cls-1" d="M1218.56,728.52c0-18.52,13.49-33.47,32.41-33.47,19.18,0,31.35,14.55,31.35,34.66v3.44h-49.21c1.06,9.52,8.2,17.59,20.24,17.59,6.35,0,13.63-2.51,18.26-7.14l6.35,9.13c-6.48,6.08-15.88,9.39-25.93,9.39C1232.72,762.12,1218.56,748.76,1218.56,728.52Zm32.28-22.1c-11.77,0-17.33,9.13-17.86,16.8h36C1268.56,715.68,1263.41,706.42,1250.84,706.42Z" transform="translate(-100 -213.54)"/><path class="cls-1" d="M1293.14,760.53v-63.9H1307v9.26c4.9-6.08,12.57-10.84,20.77-10.84v13.76a18.79,18.79,0,0,0-4.23-.4c-6,0-13.76,4-16.54,8.6v43.52Z" transform="translate(-100 -213.54)"/><path class="cls-1" d="M1344.8,773.1a14.6,14.6,0,0,0,5.3,1.06c4.49,0,7.4-1.33,9.25-5.56l3.18-7.28-26.33-64.69h15l18.66,47.89,18.65-47.89h14.82L1372.45,772c-4.36,10.85-11.9,14.29-21.82,14.42a38.09,38.09,0,0,1-7.81-.93Z" transform="translate(-100 -213.54)"/><path class="cls-1" d="M1473.51,760.53l-15-46.83-14.82,46.83h-14.55l-19.84-63.9h14.42l13.49,46.44,15.21-46.44h12.31l15.08,46.44,13.49-46.44h14.55l-19.84,63.9Z" transform="translate(-100 -213.54)"/><path class="cls-1" d="M1561.85,760.53V720.31c0-10-5-13-12.84-13-7.14,0-13.22,4.23-16.4,8.47v44.71h-13.89V672.29h13.89v32.94a30.18,30.18,0,0,1,22.49-10.18c13.76,0,20.64,7.14,20.64,20.24v45.24Z" transform="translate(-100 -213.54)"/><path class="cls-1" d="M1589,728.52c0-18.52,13.49-33.47,32.41-33.47,19.18,0,31.35,14.55,31.35,34.66v3.44h-49.21c1.06,9.52,8.2,17.59,20.24,17.59,6.35,0,13.62-2.51,18.25-7.14l6.35,9.13c-6.48,6.08-15.87,9.39-25.93,9.39C1603.12,762.12,1589,748.76,1589,728.52Zm32.27-22.1c-11.77,0-17.33,9.13-17.86,16.8h36C1639,715.68,1633.81,706.42,1621.24,706.42Z" transform="translate(-100 -213.54)"/><path class="cls-1" d="M1664.07,760.53v-63.9H1678v9.26c4.9-6.08,12.57-10.84,20.77-10.84v13.76a18.79,18.79,0,0,0-4.23-.4c-6,0-13.76,4-16.54,8.6v43.52Z" transform="translate(-100 -213.54)"/><path class="cls-1" d="M1703.73,728.52c0-18.52,13.49-33.47,32.41-33.47,19.18,0,31.35,14.55,31.35,34.66v3.44h-49.21c1.06,9.52,8.2,17.59,20.24,17.59,6.35,0,13.62-2.51,18.25-7.14l6.35,9.13c-6.48,6.08-15.87,9.39-25.92,9.39C1717.88,762.12,1703.73,748.76,1703.73,728.52Zm32.28-22.1c-11.78,0-17.34,9.13-17.86,16.8h36C1753.73,715.68,1748.57,706.42,1736,706.42Z" transform="translate(-100 -213.54)"/><path class="cls-3" d="M1817.57,228.93a28.94,28.94,0,1,0,29,28.78A28.85,28.85,0,0,0,1817.57,228.93Zm0,53.61c-13.55,0-23.91-10.66-23.91-24.83,0-13.82,10.36-24.52,23.91-24.52s23.77,10.7,23.77,24.52C1841.34,271.88,1831,282.54,1817.57,282.54Z" transform="translate(-100 -213.54)"/><path class="cls-3" d="M1805.23,242.35h14.6c5.83,0,9.43,3.18,9.43,8.13,0,3.74-1.67,6.83-5.4,7.86v.09c3.61.7,4.35,3.35,4.66,6.39s.08,6.44,1.82,8.56h-4.62c-1.15-1.26-.51-4.61-1.13-7.63-.43-3.05-1.15-5.61-5.14-5.61h-10.1v13.24h-4.12Zm12.72,14.3c3.86,0,7.17-1,7.17-5.51,0-3-1.65-5.29-5.51-5.29h-10.26v10.8Z" transform="translate(-100 -213.54)"/></svg>